# xmcd CD database file
#
# Track frame offsets:
#	183
#	26510
#	40823
#	71208
#	94878
#	125238
#	159443
#	193070
#	221050
#	250038
#
# Disc length: 3744 seconds
#
# Revision: 0
# Processed by: cddbd v1.5.1PL2 Copyright (c) Steve Scherf et al.
# Submitted via: CDex 1.50beta10
#
DISCID=920e9e0a
DTITLE=Bram Wijnands Trio - Bouncin'
DYEAR=1992
DGENRE=Jazz
TTITLE0=Top Hat, White Tie And Tails
TTITLE1=Jumpin' In The Park
TTITLE2=Way After
TTITLE3=The Bare Necessities
TTITLE4=Anything Goes
TTITLE5=Candy
TTITLE6=I Got Rhythm
TTITLE7=No Strings
TTITLE8=Laura
TTITLE9=I Found A New Baby
EXTD=YEAR: 1992
EXTT0=
EXTT1=
EXTT2=
EXTT3=
EXTT4=
EXTT5=
EXTT6=
EXTT7=
EXTT8=
EXTT9=
PLAYORDER=
